<svg width="84" height="42" viewBox="0 0 84 42" fill="none" xmlns="http://www.w3.org/2000/svg">
<path d="M42.3828 8.15625C42.3828 7.69271 42.4714 7.25781 42.6484 6.85156C42.8255 6.44531 43.0651 6.09115 43.3672 5.78906C43.6745 5.48177 44.0312 5.23958 44.4375 5.0625C44.8438 4.88542 45.2786 4.79688 45.7422 4.79688H50.8828V7.03906H45.7422C45.5859 7.03906 45.4401 7.06771 45.3047 7.125C45.1693 7.18229 45.0495 7.26302 44.9453 7.36719C44.8464 7.46615 44.7682 7.58333 44.7109 7.71875C44.6536 7.85417 44.625 8 44.625 8.15625C44.625 8.3125 44.6536 8.46094 44.7109 8.60156C44.7682 8.73698 44.8464 8.85677 44.9453 8.96094C45.0495 9.0599 45.1693 9.13802 45.3047 9.19531C45.4401 9.2526 45.5859 9.28125 45.7422 9.28125H47.9844C48.4479 9.28125 48.8828 9.36979 49.2891 9.54688C49.7005 9.71875 50.0573 9.95833 50.3594 10.2656C50.6667 10.5677 50.9062 10.9245 51.0781 11.3359C51.2552 11.7422 51.3438 12.1771 51.3438 12.6406C51.3438 13.1042 51.2552 13.5391 51.0781 13.9453C50.9062 14.3516 50.6667 14.7083 50.3594 15.0156C50.0573 15.3177 49.7005 15.5573 49.2891 15.7344C48.8828 15.9115 48.4479 16 47.9844 16H43.0078V13.7578H47.9844C48.1406 13.7578 48.2865 13.7292 48.4219 13.6719C48.5573 13.6146 48.6745 13.5365 48.7734 13.4375C48.8776 13.3333 48.9583 13.2135 49.0156 13.0781C49.0729 12.9427 49.1016 12.7969 49.1016 12.6406C49.1016 12.4844 49.0729 12.3385 49.0156 12.2031C48.9583 12.0677 48.8776 11.9505 48.7734 11.8516C48.6745 11.7474 48.5573 11.6667 48.4219 11.6094C48.2865 11.5521 48.1406 11.5234 47.9844 11.5234H45.7422C45.2786 11.5234 44.8438 11.4349 44.4375 11.2578C44.0312 11.0807 43.6745 10.8411 43.3672 10.5391C43.0651 10.2318 42.8255 9.875 42.6484 9.46875C42.4714 9.05729 42.3828 8.61979 42.3828 8.15625ZM60.5 16H52.8203V4.79688H60.5V7.03906H55.0625V9.28125H58.7422V11.5234H55.0625V13.7578H60.5V16ZM71.0312 16H68.6328L64.3125 8.625V16H62.0703V4.79688H64.4688L68.7891 12.1797V4.79688H71.0312V16ZM50.8828 36H43.0391V24.7969H45.2812V33.7578H50.8828V36ZM62.6406 30.4453C62.6406 30.9766 62.5703 31.4896 62.4297 31.9844C62.2943 32.474 62.1016 32.9349 61.8516 33.3672C61.6016 33.7943 61.2995 34.1849 60.9453 34.5391C60.5911 34.8932 60.2005 35.1979 59.7734 35.4531C59.3464 35.7031 58.8854 35.8958 58.3906 36.0312C57.8958 36.1719 57.3828 36.2422 56.8516 36.2422C56.3203 36.2422 55.8073 36.1719 55.3125 36.0312C54.8229 35.8958 54.362 35.7031 53.9297 35.4531C53.5026 35.1979 53.112 34.8932 52.7578 34.5391C52.4036 34.1849 52.099 33.7943 51.8438 33.3672C51.5938 32.9349 51.3984 32.474 51.2578 31.9844C51.1224 31.4896 51.0547 30.9766 51.0547 30.4453C51.0547 29.9141 51.1224 29.401 51.2578 28.9062C51.3984 28.4115 51.5938 27.9505 51.8438 27.5234C52.099 27.0964 52.4036 26.7057 52.7578 26.3516C53.112 25.9974 53.5026 25.6953 53.9297 25.4453C54.362 25.1953 54.8229 25.0026 55.3125 24.8672C55.8073 24.7266 56.3203 24.6562 56.8516 24.6562C57.3828 24.6562 57.8958 24.7266 58.3906 24.8672C58.8854 25.0026 59.3464 25.1953 59.7734 25.4453C60.2005 25.6953 60.5911 25.9974 60.9453 26.3516C61.2995 26.7057 61.6016 27.0964 61.8516 27.5234C62.1016 27.9505 62.2943 28.4115 62.4297 28.9062C62.5703 29.401 62.6406 29.9141 62.6406 30.4453ZM60.4141 30.4453C60.4141 29.9557 60.3203 29.4948 60.1328 29.0625C59.9453 28.625 59.6901 28.2474 59.3672 27.9297C59.0495 27.6068 58.6719 27.3516 58.2344 27.1641C57.8021 26.9766 57.3411 26.8828 56.8516 26.8828C56.3568 26.8828 55.8932 26.9766 55.4609 27.1641C55.0286 27.3516 54.651 27.6068 54.3281 27.9297C54.0052 28.2474 53.75 28.625 53.5625 29.0625C53.375 29.4948 53.2812 29.9557 53.2812 30.4453C53.2812 30.9349 53.375 31.3958 53.5625 31.8281C53.75 32.2552 54.0052 32.6302 54.3281 32.9531C54.651 33.276 55.0286 33.5312 55.4609 33.7188C55.8932 33.9062 56.3568 34 56.8516 34C57.3411 34 57.8021 33.9062 58.2344 33.7188C58.6719 33.5312 59.0495 33.276 59.3672 32.9531C59.6901 32.6302 59.9453 32.2552 60.1328 31.8281C60.3203 31.3958 60.4141 30.9349 60.4141 30.4453ZM73.0625 34.8516C72.5417 35.2995 71.9583 35.6432 71.3125 35.8828C70.6667 36.1224 69.9974 36.2422 69.3047 36.2422C68.7734 36.2422 68.2604 36.1719 67.7656 36.0312C67.276 35.8958 66.8151 35.7031 66.3828 35.4531C65.9557 35.1979 65.5651 34.8932 65.2109 34.5391C64.8568 34.1849 64.5521 33.7943 64.2969 33.3672C64.0469 32.9349 63.8516 32.474 63.7109 31.9844C63.5755 31.4896 63.5078 30.9766 63.5078 30.4453C63.5078 29.9141 63.5755 29.401 63.7109 28.9062C63.8516 28.4115 64.0469 27.9505 64.2969 27.5234C64.5521 27.0911 64.8568 26.6979 65.2109 26.3438C65.5651 25.9896 65.9557 25.6875 66.3828 25.4375C66.8151 25.1823 67.276 24.987 67.7656 24.8516C68.2604 24.7109 68.7734 24.6406 69.3047 24.6406C69.9974 24.6406 70.6667 24.7604 71.3125 25C71.9583 25.2344 72.5417 25.5781 73.0625 26.0312L71.875 27.9844C71.5469 27.6302 71.1589 27.3594 70.7109 27.1719C70.263 26.9792 69.7943 26.8828 69.3047 26.8828C68.8099 26.8828 68.3464 26.9766 67.9141 27.1641C67.4818 27.3516 67.1042 27.6068 66.7812 27.9297C66.4583 28.2474 66.2031 28.625 66.0156 29.0625C65.8281 29.4948 65.7344 29.9557 65.7344 30.4453C65.7344 30.9349 65.8281 31.3958 66.0156 31.8281C66.2031 32.2552 66.4583 32.6302 66.7812 32.9531C67.1042 33.276 67.4818 33.5312 67.9141 33.7188C68.3464 33.9062 68.8099 34 69.3047 34C69.7943 34 70.263 33.9062 70.7109 33.7188C71.1589 33.526 71.5469 33.2526 71.875 32.8984L73.0625 34.8516ZM76.6094 36H74.3672V24.7969H76.6094V30.3984L80.7812 24.7969H83.3281L79.7891 29.5234L83.3281 36H80.7812L78.3203 31.4688L76.6094 33.7578V36Z" fill="#FFFFFE"/>
<path d="M21 26.25V29.75V26.25ZM10.5 36.75H31.5C32.4283 36.75 33.3185 36.3813 33.9749 35.7249C34.6312 35.0685 35 34.1783 35 33.25V22.75C35 21.8217 34.6312 20.9315 33.9749 20.2751C33.3185 19.6187 32.4283 19.25 31.5 19.25H10.5C9.57174 19.25 8.6815 19.6187 8.02513 20.2751C7.36875 20.9315 7 21.8217 7 22.75V33.25C7 34.1783 7.36875 35.0685 8.02513 35.7249C8.6815 36.3813 9.57174 36.75 10.5 36.75ZM28 19.25V12.25C28 10.3935 27.2625 8.61301 25.9497 7.30025C24.637 5.9875 22.8565 5.25 21 5.25C19.1435 5.25 17.363 5.9875 16.0503 7.30025C14.7375 8.61301 14 10.3935 14 12.25V19.25H28Z" stroke="#FFFFFE" stroke-width="3" stroke-linecap="round" stroke-linejoin="round"/>
</svg>
